# xmcd CD database file
#
# Track frame offsets:
#	150
#	20925
#	51150
#	69375
#	92250
#	115050
#	135000
#	171825
#	199950
#
# Disc length: 2891 seconds
#
# Revision: 0
# Processed by: cddbd v1.5.1PL0 Copyright (c) Steve Scherf et al.
# Submitted via: CDex 1.51
#
DISCID=720b4909
DTITLE=Peter Lipa - Boogie Up
DYEAR=1997
DGENRE=Blues
TTITLE0=Autumn Leaves
TTITLE1=Leaving for the city
TTITLE2=Lonely Avenue
TTITLE3=Hallelujah I love her so
TTITLE4=The shadow of your smile/ Trouble in paradise
TTITLE5=Misty
TTITLE6=Take five
TTITLE7=Georgia
TTITLE8=Boogie down
EXTD=YEAR: 1997
EXTT0=
EXTT1=
EXTT2=
EXTT3=
EXTT4=
EXTT5=
EXTT6=
EXTT7=
EXTT8=
PLAYORDER=
